<svg xmlns="http://www.w3.org/2000/svg" width="817" height="999" preserveAspectRatio="none" style="display:block" viewBox="0 0 1675 2048"><defs><linearGradient id="f" x1="1535.77" x2="1466.29" y1="1469.8" y2="1536.26" gradientUnits="userSpaceOnUse"><stop class="stop0" offset="0" stop-color="#686867"/><stop class="stop1" offset="1" stop-color="#9b9b99"/></linearGradient><linearGradient id="e" x1="1484.28" x2="1387.01" y1="1516.92" y2="1603.48" gradientUnits="userSpaceOnUse"><stop class="stop0" offset="0" stop-color="#929290"/><stop class="stop1" offset="1" stop-color="#cbcbca"/></linearGradient><linearGradient id="d" x1="166.934" x2="237.034" y1="1028.48" y2="949.026" gradientUnits="userSpaceOnUse"><stop class="stop0" offset="0" stop-color="#555454"/><stop class="stop1" offset="1" stop-color="#898988"/></linearGradient><linearGradient id="c" x1="169.472" x2="242.518" y1="901.122" y2="815.705" gradientUnits="userSpaceOnUse"><stop class="stop0" offset="0" stop-color="#878786"/><stop class="stop1" offset="1" stop-color="#c0bfbe"/></linearGradient><linearGradient id="b" x1="652.528" x2="594.024" y1="1542.78" y2="1466.54" gradientUnits="userSpaceOnUse"><stop class="stop0" offset="0" stop-color="#737372"/><stop class="stop1" offset="1" stop-color="#a2a1a0"/></linearGradient><linearGradient id="a" x1="581.15" x2="520.014" y1="1484.91" y2="1407.12" gradientUnits="userSpaceOnUse"><stop class="stop0" offset="0" stop-color="#a1a09f"/><stop class="stop1" offset="1" stop-color="#cfcfce"/></linearGradient></defs><path d="M612.742 169.485c6.78-6.131 44.443-26.827 54.667-32.732l100.746-59.261 47.17-27.93c5.45-3.25 17.964-13.53 23.31-10.924 20.217 8.971 220.095 126.606 224.045 132.303 2.22 9.374 1.04 51.8 1.16 64.369.46 47.902-.79 96.72.32 144.586 28.52 17.846 62.15 35.221 91.94 52.706l266.58 154.967 74.8 42.817c28.5 16.318 60.63 34.094 84.63 56.588a200.53 200.53 0 0 1 58.86 102.789c8.81 38.389 6.68 73.346 6.84 112.359l.13 121.148-.24 164.01c-.02 22.86.82 47.47.26 70.01.52 16.7.27 31.52.01 48.19 1.46 19.56 1.56 44.01.57 63.62-1.8 35.55 1.98 74.6-.38 109.52-3.83 56.59-43.42 128.54-91.03 160.09-9.79 9.31-31.68 20.97-43.84 27.93a2673 2673 0 0 0-45.09 26.29c-18.82 10.41-41.6 25.32-60.48 36.73-75.99 46.44-157.21 90.69-233.9 136.7l-148.15 87.97c-37.592 22.2-82.01 51.42-122.61 65.06-30.399 10.21-84.418 11.11-116.024 3.48a216.5 216.5 0 0 1-46.498-17.52c-13.559-6.96-28.738-16.24-42.133-23.95a6303 6303 0 0 1-98.037-57.89 4783 4783 0 0 0-64.64-38.39c-11.995-6.93-64.497-34.62-67.546-44.01-11.487-5.01-33.412-18.52-45.12-25.26l-96.387-56.31-131.561-76.82c-41.682-24.52-79.432-42.16-112.41-79.81a225.6 225.6 0 0 1-51.962-102.49c-5.42-24.94-3.943-59.77-3.922-85.8l.035-103.43-.067-84.19c-.166-24.69-1.384-38.3.329-63.64 1.004-17.77-.236-52.31-.252-71.24l-.06-158.066c.077-57.153-4.679-117.5 17.03-171.505 15.652-38.942 42.05-73.511 77.273-96.289 32.387-20.943 65.306-39.332 98.339-59.018l60.957-35.953c10.2-5.997 27.522-16.746 37.791-21.186 10.519-5.463 19.399-12.001 29.598-17.88 17.509-10.012 35.268-20.055 52.914-29.792 5.096-2.812 22.353-15.528 25.423-16.835 14.561-6.2 111.679-68.22 119.546-67.034 18.485 10.958 36.813 22.019 56.001 31.697 3.612 1.821 6.975 4.04 10.319 6.311-.565-9.186.398-23.806.48-33.742l.197-72.594c.02-58.529-1.674-122.832.069-180.749m159.229 684.09c-15.792 11.551-57.184 34.481-75.954 45.383l-124.946 73.421c-11.823 6.934-22.177 20.055-27.992 23.241-.584 38.3 1.639 75.81.898 114.09-.376 19.42-.122 39.08-.13 58.53l.001 87.76c.011 13.35-.528 32.44.194 45.2 7.688 4.52 15.958 8.21 22.908 13.43 12.653 5.45 41.3 23.13 54.078 30.67 25.217 14.89 51.829 29.69 76.79 44.8 7.333 4.24 27.399 14.79 31.367 20.69 1.576 9.86-12.242 54.14-15.674 66.67q-4.3 14.445-8.317 28.98c-4.186 13.97-11.428 39.53-13.566 53.36 11.581-7.17 40.99-25.55 52.101-31.28 21.972-10.87 43.97-27.45 66.19-38.59 23.954-12 46.554-27.93 69.761-41.33a7395 7395 0 0 0 172.77-100.84c24-14.7 52.07-25.33 67.41-49.71 13.63-21.68 11.33-42.1 11.35-66.47v-65.08l-.24-112.83c-.05-11.7 1.92-64.894-5.54-69.73-71.06-46.061-146.393-86.006-219.188-129.052-5.243-1.47-64.565-34.693-69.045-38.957-19.575 14.554-44.735 24.544-65.226 37.644"/><path fill="#f5f5f4" d="M318.195 550.103c10.519-5.463 19.399-12.001 29.598-17.88 17.509-10.012 35.268-20.055 52.914-29.792 5.096-2.812 22.353-15.528 25.423-16.835 14.561-6.2 111.679-68.22 119.546-67.034 18.485 10.958 36.813 22.019 56.001 31.697 3.612 1.821 6.975 4.04 10.319 6.311 13.986 9.787 31.433 18.708 46.188 27.839 36.712 22.721 76.308 43.56 112.944 65.854l-.082 197.7c.008 29.047-1.381 77.841.925 105.612-15.792 11.551-57.184 34.481-75.954 45.383l-124.946 73.421c-11.823 6.934-22.177 20.055-27.992 23.241-.584 38.3 1.639 75.81.898 114.09-.376 19.42-.122 39.08-.13 58.53l.001 87.76c.011 13.35-.528 32.44.194 45.2 7.688 4.52 15.958 8.21 22.908 13.43 12.653 5.45 41.3 23.13 54.078 30.67 25.217 14.89 51.829 29.69 76.79 44.8 7.333 4.24 27.399 14.79 31.367 20.69 1.576 9.86-12.242 54.14-15.674 66.67q-4.3 14.445-8.317 28.98c-4.186 13.97-11.428 39.53-13.566 53.36-20.951 14.47-62.396 34-88.04 32.15-48.419 5.76-88.366-15.76-127.571-41.52-4.655-1.44-22.39-12.29-27.393-15.48-34.012-21.65-72.035-40.51-105.601-62.55-1.286-.38-1.529-.55-2.737-1.23-38.386-21.85-76.97-44.65-114.919-67.08-77.783-45.99-138.81-71.88-176.97-159.6-7.972-17.56-13.125-35.63-16.557-54.57-1.49-8.22-2.21-18.85-4.723-26.56 1.004-17.77-.236-52.31-.252-71.24l-.06-158.066c.077-57.153-4.679-117.5 17.03-171.505 15.652-38.942 42.05-73.511 77.273-96.289 32.387-20.943 65.306-39.332 98.339-59.018l60.957-35.953c10.2-5.997 27.522-16.746 37.791-21.186"/><path d="M318.195 550.103c10.519-5.463 19.399-12.001 29.598-17.88 17.509-10.012 35.268-20.055 52.914-29.792 5.096-2.812 22.353-15.528 25.423-16.835 14.561-6.2 111.679-68.22 119.546-67.034 18.485 10.958 36.813 22.019 56.001 31.697 3.612 1.821 6.975 4.04 10.319 6.311 13.986 9.787 31.433 18.708 46.188 27.839 36.712 22.721 76.308 43.56 112.944 65.854l-.082 197.7c.008 29.047-1.381 77.841.925 105.612-15.792 11.551-57.184 34.481-75.954 45.383l-124.946 73.421c-11.823 6.934-22.177 20.055-27.992 23.241-.584 38.3 1.639 75.81.898 114.09-.376 19.42-.122 39.08-.13 58.53l.001 87.76c.011 13.35-.528 32.44.194 45.2-10.269-4.33-31.062-17.12-41.382-23.06a3241 3241 0 0 1-79.923-46.59l-53.931-32.31c-16.732-9.8-36.676-19.47-50.219-33.15-.959-12.35.092-28.77-.202-41.55-.864-37.71 1.162-77.74-.291-115.25.883-5.69.468-38.504.396-46.457-.293-32.481.425-66.052-.394-98.43.399-3.107.314-7.835.281-11.094-.26-25.401.463-51.101-.383-76.469.821-23.801.134-51.519.127-75.562z"/><path fill="#f5f5f4" d="M545.676 418.562c18.485 10.958 36.813 22.019 56.001 31.697 3.612 1.821 6.975 4.04 10.319 6.311 13.986 9.787 31.433 18.708 46.188 27.839 36.712 22.721 76.308 43.56 112.944 65.854l-.082 197.7c.008 29.047-1.381 77.841.925 105.612-15.792 11.551-57.184 34.481-75.954 45.383l-124.946 73.421c-11.823 6.934-22.177 20.055-27.992 23.241-.428-14.55 1.095-35.879 1.094-51.888l-.127-157.885-.036-235.785c-.002-18.323-1.096-127.537 1.666-131.5"/><path fill="url(#a)" d="M566.95 1314.63c12.653 5.45 41.3 23.13 54.078 30.67 25.217 14.89 51.829 29.69 76.79 44.8 7.333 4.24 27.399 14.79 31.367 20.69 1.576 9.86-12.242 54.14-15.674 66.67q-4.3 14.445-8.317 28.98c-4.186 13.97-11.428 39.53-13.566 53.36-20.951 14.47-62.396 34-88.04 32.15-48.419 5.76-88.366-15.76-127.571-41.52-4.655-1.44-22.39-12.29-27.393-15.48-34.012-21.65-72.035-40.51-105.601-62.55 10.635.33 58.607 35.59 69.821 37.63 1.426-1.12 1.174-.5 1.459-2.13 3.732-20.71 24.127-34.07 39.26-46.77 14.428-11.63 28.396-24.13 43.372-35.05 28.778-20.98 56.17-43.53 85.855-63.33 9.417-6.28 17.719-13.46 27.419-19.73l.178-1.25c-7.627-7.36-41.794-21.12-43.437-27.14"/><path fill="url(#b)" d="M697.818 1390.1c7.333 4.24 27.399 14.79 31.367 20.69 1.576 9.86-12.242 54.14-15.674 66.67q-4.3 14.445-8.317 28.98c-4.186 13.97-11.428 39.53-13.566 53.36-20.951 14.47-62.396 34-88.04 32.15-48.419 5.76-88.366-15.76-127.571-41.52 2.919.47 5.159.91 8.032 1.61 11.371-7.18 22.84-19.68 34.554-26.65 37.549-22.37 70.582-48.99 104.863-75.97 14.502-11.42 68.371-45.07 74.352-59.32"/><path fill="#6d6d6d" d="M603.588 1591.95c-3.824-1.02-4.918-.92-8.8-.15l-2.015-1.53c-.271-2.99 6.211-5.61 8.336-7.41 10.937-9.28 23.381-16.66 34.351-25.91 15.174-12.8 27.126-29.2 43.117-41.1 4.78-3.56 19.344-12.85 25.033-13.12l1.584 3.71c-4.186 13.97-11.428 39.53-13.566 53.36-20.951 14.47-62.396 34-88.04 32.15"/><path fill="url(#c)" d="M88.43 704.846c10.214 2.429 16.201 2.382 25.795 8.396 11.555 7.379 20.488 18.438 31.142 26.912 9.082 7.225 19.462 13.402 28.662 20.616 19.25 15.096 37.803 30.728 57.516 45.28 10.325 7.621 19.88 21.962 30.542 29.778 14.665 11.682 29.127 22.892 43.049 35.523 4.169 3.783 7.013 4.217 10.84 8.991 1.897-3.047-.303-9.363 2.12-15.939.819 32.378.101 65.949.394 98.43.072 7.953.487 40.767-.396 46.457-2.167 4.35-.31 8.18-1.994 9.94-4.236-1.95-19.547-13.2-23.933-16.7-16.231-12.953-33.951-25.681-49.835-38.832-11.127-9.213-22.671-21.802-33.913-31.087-15.656-12.929-30.918-24.491-45.51-38.695-9.615-9.36-16.175-25.856-24.936-32.909-15.975-12.691-34.259-22.328-49.344-36.27-2.845-2.629-2.402-3.315-6.273-2.566-1.866-2.516-5.222-12.411-6.037-15.562-9.531-36.844-5.81-68.845 12.11-101.763"/><path fill="url(#d)" d="M82.356 822.171c3.87-.749 3.428-.063 6.273 2.566 15.085 13.942 33.369 23.579 49.344 36.27 8.761 7.053 15.321 23.549 24.936 32.909 14.592 14.204 29.854 25.766 45.51 38.695 11.242 9.285 22.786 21.874 33.913 31.087 15.884 13.151 33.604 25.879 49.835 38.832 4.386 3.5 19.697 14.75 23.933 16.7 1.684-1.76-.173-5.59 1.994-9.94 1.453 37.51-.573 77.54.291 115.25.294 12.78-.757 29.2.202 41.55-9.337-9.08-26.45-35.14-34.55-46.78a7732 7732 0 0 1-66.425-96.37 9810 9810 0 0 1-98.272-142.565c-9.96-14.814-30.702-43.174-36.984-58.204"/><path fill="#c6c5c4" d="M88.43 704.846c8.894-15.38 11.628-24.977 30.581-28.717 29.724 12.607 47.459 32.032 71.858 51.41 35.551 28.235 70.786 57.434 103.311 89.142 7.031 6.823 15.869 13.973 22.33 20.912-.059-16.278-1.02-45.677 1.484-60.753.846 25.368.123 51.068.383 76.469.033 3.259.118 7.987-.281 11.094-2.423 6.576-.223 12.892-2.12 15.939-3.827-4.774-6.671-5.208-10.84-8.991-13.922-12.631-28.384-23.841-43.049-35.523-10.662-7.816-20.217-22.157-30.542-29.778-19.713-14.552-38.266-30.184-57.516-45.28-9.2-7.214-19.58-13.391-28.662-20.616-10.654-8.474-19.587-19.533-31.142-26.912-9.594-6.014-15.58-5.967-25.795-8.396"/><path fill="#f5f5f4" d="M1130.73 602.03c27.25 14.97 55.17 31.723 82.22 47.286a7377 7377 0 0 1 143.72 83.976l-.27 87.072c-.02 8.099-.86 46.261 1.48 51.597 7.15 16.334 35.09 48.003 46.8 62.125l120.38 145.004c15.73 18.82 31.26 37.8 46.58 56.96 30.57 37.73 46.82 58.88 63.73 105.59 7.59 4.33 8.48 7.92 12.59 15.65.52 16.7.27 31.52.01 48.19 1.46 19.56 1.56 44.01.57 63.62-1.8 35.55 1.98 74.6-.38 109.52-3.83 56.59-43.42 128.54-91.03 160.09-9.79 9.31-31.68 20.97-43.84 27.93a2673 2673 0 0 0-45.09 26.29c-5.52-1.36-9.87-16.83-14.33-22.36-42.43-52.52-87.5-103.42-126.1-158.86-4.54-6.52-9.84-20.76-12.74-28.48 21.09-13.66 44.63-26.98 66.36-39.65 25.12-16.82 58.6-32.63 84.48-50.05-51.48-61.57-102.76-125.72-153.74-188.05-59.63-72.92-122.51-145.62-181.28-218.767-1.57-45.386-.28-99.238-.29-145.099z"/><path fill="url(#e)" d="M1465.87 1393.53c18.49 20.24 34.62 43.18 52.31 63.87 40.27 47.09 78.37 86.18 52.98 153.09-2.97 5.68-13.44 23.55-14.03 28.22-9.79 9.31-31.68 20.97-43.84 27.93a2673 2673 0 0 0-45.09 26.29c-5.52-1.36-9.87-16.83-14.33-22.36-42.43-52.52-87.5-103.42-126.1-158.86-4.54-6.52-9.84-20.76-12.74-28.48 21.09-13.66 44.63-26.98 66.36-39.65 25.12-16.82 58.6-32.63 84.48-50.05"/><path fill="url(#f)" d="M1465.87 1393.53c18.49 20.24 34.62 43.18 52.31 63.87 40.27 47.09 78.37 86.18 52.98 153.09-25 .41-28.1-5.97-46.81-20.78-44.42-35.15-83.1-77.84-118.2-122.11-3.96-4.99-19.36-23.09-24.76-24.02 25.12-16.82 58.6-32.63 84.48-50.05"/><path fill="#424344" d="M1635.37 1241.64c7.59 4.33 8.48 7.92 12.59 15.65.52 16.7.27 31.52.01 48.19-.79-3.05-1.21-7.87-1.59-11.08-2.14-18.18-6.14-35.12-11.01-52.76"/><path fill="#f5f5f4" d="M612.742 169.485c6.78-6.131 44.443-26.827 54.667-32.732l100.746-59.261 47.17-27.93c5.45-3.25 17.964-13.53 23.31-10.924 20.217 8.971 220.095 126.606 224.045 132.303 2.22 9.374 1.04 51.8 1.16 64.369.46 47.902-.79 96.72.32 144.586q-.42 64.781-.15 129.562c.03 43.702-.39 88.168.14 131.809l-105.356 59.69c-16.736 9.547-36.713 20.33-52.98 30.331l-.424 79.001c-.018 11.9-.575 33.691.852 44.599-5.243-1.47-64.565-34.693-69.045-38.957-19.575 14.554-44.735 24.544-65.226 37.644-2.306-27.771-.917-76.565-.925-105.612l.082-197.7c-36.636-22.294-76.232-43.133-112.944-65.854-14.755-9.131-32.202-18.052-46.188-27.839-.565-9.186.398-23.806.48-33.742l.197-72.594c.02-58.529-1.674-122.832.069-180.749"/><path d="M612.742 169.485c6.78-6.131 44.443-26.827 54.667-32.732l100.746-59.261 47.17-27.93c5.45-3.25 17.964-13.53 23.31-10.924-2.096 4.43-1.068 104.811-1.067 117.994v442.893l.019 141.011c.006 21.037 1.03 55.132-.39 75.395-19.575 14.554-44.735 24.544-65.226 37.644-2.306-27.771-.917-76.565-.925-105.612l.082-197.7c-36.636-22.294-76.232-43.133-112.944-65.854-14.755-9.131-32.202-18.052-46.188-27.839-.565-9.186.398-23.806.48-33.742l.197-72.594c.02-58.529-1.674-122.832.069-180.749"/><path fill="#f5f5f4" d="M1315.03 1483.23c2.9 7.72 8.2 21.96 12.74 28.48 38.6 55.44 83.67 106.34 126.1 158.86 4.46 5.53 8.81 21 14.33 22.36-18.82 10.41-41.6 25.32-60.48 36.73-75.99 46.44-157.21 90.69-233.9 136.7l-148.15 87.97c-37.592 22.2-82.01 51.42-122.61 65.06-30.399 10.21-84.418 11.11-116.024 3.48a216.5 216.5 0 0 1-46.498-17.52c-13.559-6.96-28.738-16.24-42.133-23.95a6303 6303 0 0 1-98.037-57.89 4783 4783 0 0 0-64.64-38.39c-11.995-6.93-64.497-34.62-67.546-44.01 17.484 6.08 30.835 13.18 50.448 19.08 53.187 16 99.94 13.17 152.508-3.67 30.17-9.67 57.343-27.63 84.644-43.65l90.64-53.53L1101.65 1609l99.59-58.94c15.73-9.26 33.04-20 48.87-28.54 16.2-11.28 46.93-27.95 64.92-38.29"/><path fill="#c6c5c4" d="M1315.03 1483.23c2.9 7.72 8.2 21.96 12.74 28.48 38.6 55.44 83.67 106.34 126.1 158.86 4.46 5.53 8.81 21 14.33 22.36-18.82 10.41-41.6 25.32-60.48 36.73l.65-.9c4.9-6.86 41.73-27.42 51.77-33.4-4.73-5.43-8.29-13.9-13.41-19.7-15.96-18.09-29.78-37.84-44.73-56.61l-55.79-69.03c-8.83-10.96-18.05-21.67-26.17-33.17-6.47-9.16-7.79-16.44-11.65-26.86-9.76 1.63-48.15 31.89-58.28 31.53 16.2-11.28 46.93-27.95 64.92-38.29"/></svg>